<svg height="200px" width="200px" version="1.1" id="_x32_" xmlns="http://www.w3.org/2000/svg" xmlns:xlink="http://www.w3.org/1999/xlink" viewBox="-153.6 -153.6 819.20 819.20" xml:space="preserve" fill="#e9ecf1" transform="matrix(-1, 0, 0, 1, 0, 0)" stroke="#e9ecf1"><g id="SVGRepo_bgCarrier" stroke-width="0"><path transform="translate(-153.6, -153.6), scale(51.2)" fill="#7ed0ec" d="M9.166.33a2.25 2.25 0 00-2.332 0l-5.25 3.182A2.25 2.25 0 00.5 5.436v5.128a2.25 2.25 0 001.084 1.924l5.25 3.182a2.25 2.25 0 002.332 0l5.25-3.182a2.25 2.25 0 001.084-1.924V5.436a2.25 2.25 0 00-1.084-1.924L9.166.33z" strokewidth="0"></path></g><g id="SVGRepo_tracerCarrier" stroke-linecap="round" stroke-linejoin="round"></g><g id="SVGRepo_iconCarrier"> <style type="text/css"> .st0{fill:#ffffff;} </style> <g> <path class="st0" d="M301.51,100.634c27.458,6.052,54.62-11.304,60.672-38.769c6.052-27.458-11.304-54.612-38.762-60.663 c-27.457-6.044-54.619,11.296-60.672,38.753C256.705,67.42,274.061,94.583,301.51,100.634z"></path> <path class="st0" d="M464.459,188.729c1.355-4.874,0.698-10.092-1.81-14.494l-0.69-1.204c-5.066-8.88-16.254-12.154-25.31-7.399 l-3.3,1.726l-7.736-16.128c4.36-7.878,4.814-17.701,0.295-26.244c-7.113-13.417-23.77-18.543-37.204-11.414 c-13.425,7.112-18.535,23.77-11.422,37.188c4.528,8.535,12.912,13.669,21.868,14.486l8.948,15.345l-29.788,15.614l-69.173-62.195 c-5.454-6.616-20.412-16.632-28.913-20.1c-1.515-0.614-3.047-1.144-4.579-1.625c0,0-3.417-1.044-7.188-1.658l-122.69-19.948 c-7.062-1.28-14.343-0.068-20.614,3.425l-58.088,32.482c-8.602,4.798-11.7,15.647-6.936,24.275l0.236,0.429 c4.284,7.786,13.62,11.237,21.944,8.13l62.009-23.138l61.774,19.755l-43.483,105.106l-45.074,114.02l-66.017,97.194 c-7.466,9.848-5.807,23.837,3.762,31.674l0.69,0.547c9.596,7.844,23.687,6.649,31.834-2.686l43.921-52.043 c6.7-8.03,28.618-31.565,32.725-41.178l46.918-67.026l77.086,63.676l-24.2,75.923c-3.745,11.784,2.34,24.444,13.898,28.871 l0.858,0.337c11.683,4.47,24.797-1.06,29.763-12.516l36.009-84.888c15.808-27.289,0-48.837-11.498-58.896l-61.858-64.998 l33.315-68.836l46.632,26.548c8.316,5.42,28.828,1.902,37.49-2.963l40.604-26.649l13.544,23.24l20.269-10.74l-12.651-26.371 l4.815-3.165C459.855,197.752,463.104,193.603,464.459,188.729z"></path> </g> </g></svg>